<?xml-stylesheet type="text/css" href="svg-styles.css"?>
<svg xmlns="http://www.w3.org/2000/svg" data-name="Layer 1" viewBox="0 0 100 100" x="0px" y="0px">
<path class="gear-icon icon" d="M60.5,50A10.5,10.5,0,1,1,50,39.5,10.51,10.51,0,0,1,60.5,50ZM91.62,38.09l-6.55,3.78a35.87,35.87,0,0,1,0,16.25l6.55,3.78a6,6,0,0,1,2.2,8.2l-4.5,7.79a6,6,0,0,1-8.2,2.2l-6.56-3.79A36,36,0,0,1,60.5,84.44V92a6,6,0,0,1-6,6h-9a6,6,0,0,1-6-6V84.44a36,36,0,0,1-14.06-8.13l-6.56,3.79a6,6,0,0,1-8.2-2.2L6.18,70.1a6,6,0,0,1,2.2-8.2l6.55-3.78a35.87,35.87,0,0,1,0-16.25L8.38,38.09a6,6,0,0,1-2.2-8.2l4.5-7.79a6,6,0,0,1,8.2-2.2l6.56,3.79A36,36,0,0,1,39.5,15.56V8a6,6,0,0,1,6-6h9a6,6,0,0,1,6,6v7.56a36,36,0,0,1,14.06,8.13l6.56-3.79a6,6,0,0,1,8.2,2.2l4.5,7.79A6,6,0,0,1,91.62,38.09ZM71,50A21,21,0,1,0,50,71,21,21,0,0,0,71,50Z"/>
<!--<text x="0" y="115" fill="#000000" font-size="5px" font-weight="bold" font-family="'Helvetica Neue', Helvetica, Arial-Unicode, Arial, Sans-serif">Created by Gregor Cresnar</text>
<text x="0" y="120" fill="#000000" font-size="5px" font-weight="bold" font-family="'Helvetica Neue', Helvetica, Arial-Unicode, Arial, Sans-serif">from the Noun Project</text>-->
</svg>